G04 MADE WITH FRITZING*
G04 WWW.FRITZING.ORG*
G04 DOUBLE SIDED*
G04 HOLES PLATED*
G04 CONTOUR ON CENTER OF CONTOUR VECTOR*
%ASAXBY*%
%FSLAX23Y23*%
%MOIN*%
%OFA0B0*%
%SFA1.0B1.0*%
%ADD10C,0.049370*%
%ADD11C,0.085000*%
%ADD12C,0.080000*%
%ADD13C,0.088000*%
%ADD14C,0.072992*%
%ADD15C,0.055000*%
%ADD16C,0.090000*%
%ADD17C,0.083999*%
%ADD18C,0.092000*%
%ADD19R,0.085000X0.085000*%
%ADD20R,0.088000X0.088000*%
%ADD21R,0.072992X0.072992*%
%ADD22R,0.090000X0.090000*%
%ADD23R,0.090000X0.089986*%
%ADD24R,0.089986X0.090000*%
%ADD25R,0.084001X0.084001*%
%ADD26R,0.092000X0.092000*%
%LNMASK0*%
G90*
G70*
G54D10*
X5556Y3837D03*
X2988Y1149D03*
X2676Y693D03*
X660Y1989D03*
X1284Y1461D03*
X1980Y1389D03*
X3276Y1965D03*
X1188Y261D03*
X5580Y3093D03*
X660Y2061D03*
X1332Y1389D03*
G54D11*
X1542Y457D03*
X1642Y457D03*
X1742Y457D03*
X1942Y457D03*
X2042Y457D03*
X2142Y457D03*
X2298Y2680D03*
X2042Y2680D03*
X2298Y2857D03*
X2042Y2857D03*
G54D12*
X2342Y1557D03*
X2342Y1457D03*
X1642Y1557D03*
X1642Y1658D03*
G54D11*
X842Y1657D03*
X842Y1757D03*
X5742Y3357D03*
X5742Y3557D03*
X1842Y2457D03*
X1842Y2857D03*
G54D13*
X2442Y3557D03*
X2542Y3557D03*
G54D14*
X842Y3559D03*
X842Y3657D03*
X1442Y3559D03*
X1442Y3657D03*
X1142Y3559D03*
X1142Y3657D03*
X2042Y3557D03*
X2042Y3656D03*
X542Y3559D03*
X542Y3657D03*
X242Y3559D03*
X242Y3657D03*
X1742Y3559D03*
X1742Y3657D03*
G54D11*
X1042Y3257D03*
X1042Y2857D03*
X442Y957D03*
X442Y557D03*
X542Y557D03*
X542Y157D03*
X942Y3257D03*
X942Y2857D03*
X842Y3257D03*
X842Y2857D03*
X742Y3257D03*
X742Y2857D03*
X442Y3257D03*
X442Y2857D03*
X342Y3257D03*
X342Y2857D03*
X242Y3257D03*
X242Y2857D03*
X1842Y2257D03*
X2142Y2257D03*
X1842Y2157D03*
X2142Y2157D03*
X1842Y2057D03*
X2142Y2057D03*
X1842Y1957D03*
X2142Y1957D03*
X1842Y1857D03*
X2142Y1857D03*
X1842Y1757D03*
X2142Y1757D03*
X1842Y1657D03*
X2142Y1657D03*
X1842Y1557D03*
X2142Y1557D03*
X1842Y1457D03*
X2142Y1457D03*
X1842Y1357D03*
X2142Y1357D03*
X1842Y1257D03*
X2142Y1257D03*
X1842Y1157D03*
X2142Y1157D03*
X1842Y1057D03*
X2142Y1057D03*
X1842Y957D03*
X2142Y957D03*
G54D15*
X3542Y3257D03*
X3242Y3657D03*
X3242Y3457D03*
X3242Y3257D03*
X3242Y2657D03*
X3542Y2657D03*
X3542Y3457D03*
X3542Y3657D03*
X4142Y3257D03*
X3842Y3657D03*
X3842Y3457D03*
X3842Y3257D03*
X3842Y2657D03*
X4142Y2657D03*
X4142Y3457D03*
X4142Y3657D03*
X4742Y3257D03*
X4442Y3657D03*
X4442Y3457D03*
X4442Y3257D03*
X4442Y2657D03*
X4742Y2657D03*
X4742Y3457D03*
X4742Y3657D03*
X5342Y3257D03*
X5042Y3657D03*
X5042Y3457D03*
X5042Y3257D03*
X5042Y2657D03*
X5342Y2657D03*
X5342Y3457D03*
X5342Y3657D03*
G54D11*
X842Y2157D03*
X1242Y2157D03*
X842Y2257D03*
X1242Y2257D03*
X2542Y2457D03*
X2942Y2457D03*
X2542Y1957D03*
X2942Y1957D03*
X2542Y1057D03*
X2942Y1057D03*
X842Y657D03*
X1242Y657D03*
X842Y857D03*
X1242Y857D03*
X842Y957D03*
X1242Y957D03*
X842Y757D03*
X1242Y757D03*
X842Y2357D03*
X1242Y2357D03*
X842Y2057D03*
X1242Y2057D03*
X842Y2457D03*
X1242Y2457D03*
X2542Y2057D03*
X2942Y2057D03*
X2542Y2257D03*
X2942Y2257D03*
X2542Y2357D03*
X2942Y2357D03*
X2542Y2157D03*
X2942Y2157D03*
X2542Y657D03*
X2942Y657D03*
X2542Y757D03*
X2942Y757D03*
X2542Y857D03*
X2942Y857D03*
X2542Y957D03*
X2942Y957D03*
G54D16*
X242Y1257D03*
X242Y1457D03*
X242Y1057D03*
X5142Y257D03*
X4942Y257D03*
X5342Y257D03*
X6142Y3657D03*
X6342Y3657D03*
X242Y457D03*
X242Y657D03*
X5842Y257D03*
X5642Y257D03*
X6142Y2457D03*
X6142Y2257D03*
X6142Y3157D03*
X6142Y2957D03*
X6142Y2757D03*
X6142Y3357D03*
G54D17*
X3142Y1857D03*
X3142Y1757D03*
X3142Y1657D03*
X3142Y1557D03*
G54D18*
X5042Y2457D03*
X5340Y2457D03*
X4442Y2457D03*
X4740Y2457D03*
X3842Y2457D03*
X4140Y2457D03*
X3242Y2357D03*
X3540Y2357D03*
G54D19*
X842Y1657D03*
X5742Y3357D03*
G54D20*
X2442Y3557D03*
G54D21*
X842Y3559D03*
X1442Y3559D03*
X1142Y3559D03*
X2042Y3557D03*
X542Y3559D03*
X242Y3559D03*
X1742Y3559D03*
G54D19*
X1842Y2257D03*
G54D22*
X242Y1057D03*
X5342Y257D03*
G54D23*
X6142Y3657D03*
G54D24*
X242Y457D03*
G54D23*
X5842Y257D03*
G54D24*
X6142Y2457D03*
G54D22*
X6142Y3357D03*
G54D25*
X3142Y1857D03*
G54D26*
X5041Y2457D03*
X4441Y2457D03*
X3841Y2457D03*
X3241Y2357D03*
G04 End of Mask0*
M02*