; NON-PLATED HOLES START AT T1
; THROUGH (PLATED) HOLES START AT T100
M48
INCH
T100C0.038000
T101C0.035000
T102C0.042000
T103C0.021000
T104C0.031497
T105C0.015748
T106C0.039999
T107C0.030000
T108C0.040000
%
T100
X024416Y035574
X025416Y035574
T101
X007416Y032574
X018416Y017574
X003416Y032574
X029416Y022574
X009416Y032574
X012416Y009574
X025416Y019574
X021416Y014574
X022975Y026803
X018416Y016574
X018416Y018574
X002416Y032574
X018416Y012574
X025416Y008574
X020416Y004574
X029416Y006574
X018416Y024574
X012416Y006574
X010416Y028574
X021416Y013574
X021416Y019574
X005416Y005574
X019416Y004574
X029416Y009574
X020416Y026803
X057416Y035574
X018416Y028574
X012416Y022574
X003416Y028574
X018416Y013574
X008416Y006574
X029416Y024574
X025416Y020574
X025416Y023574
X008416Y020574
X004416Y028574
X029416Y020574
X021416Y011574
X012416Y024574
X008416Y009574
X025416Y010574
X015416Y004574
X018416Y011574
X029416Y021574
X022975Y028574
X017416Y004574
X057416Y033574
X025416Y022574
X021416Y018574
X018416Y014574
X008416Y017574
X021416Y015574
X025416Y007574
X016416Y004574
X021416Y020574
X008416Y007574
X025416Y024574
X021416Y009574
X008416Y022574
X021416Y021574
X005416Y001574
X021416Y004574
X025416Y021574
X008416Y024574
X018416Y015574
X029416Y008574
X004416Y009574
X025416Y009574
X021416Y017574
X021416Y016574
X021416Y022574
X018416Y021574
X008416Y032574
X004416Y005574
X018416Y022574
X018416Y009574
X025416Y006574
X008416Y021574
X010416Y032574
X004416Y032574
X012416Y023574
X008416Y023574
X007416Y028574
X029416Y023574
X018416Y010574
X018416Y019574
X002416Y028574
X008416Y008574
X021416Y010574
X018416Y020574
X012416Y007574
X008416Y016574
X012416Y021574
X009416Y028574
X008416Y028574
X012416Y008574
X029416Y007574
X021416Y012574
X020416Y028574
X029416Y010574
X012416Y020574
X029416Y019574
T102
X032416Y023574
X041396Y024574
X044416Y024574
X053396Y024574
X038416Y024574
X035396Y023574
X047396Y024574
X050416Y024574
T103
X044416Y032574
X050416Y036574
X032416Y026574
X032416Y036574
X038416Y026574
X038416Y032574
X035416Y032574
X047416Y032574
X035416Y036574
X047416Y034574
X038416Y034574
X050416Y034574
X044416Y026574
X044416Y034574
X035416Y034574
X047416Y036574
X050416Y026574
X050416Y032574
X053416Y032574
X035416Y026574
X053416Y026574
X032416Y034574
X041416Y026574
X041416Y036574
X041416Y032574
X053416Y034574
X053416Y036574
X044416Y036574
X038416Y036574
X032416Y032574
X041416Y034574
X047416Y026574
T104
X014416Y036574
X020416Y036559
X011416Y036574
X011416Y035590
X017416Y035590
X002416Y035590
X008416Y036574
X020416Y035574
X002416Y036574
X005416Y036574
X008416Y035590
X005416Y035590
X017416Y036574
X014416Y035590
T105
X013320Y013887
X026760Y006927
X006599Y020607
X006599Y019887
X055800Y030927
X012840Y014607
X019800Y013887
X011880Y002607
X029880Y011487
X032760Y019647
X055560Y038367
T106
X031416Y015574
X031416Y018574
X031416Y016574
X031416Y017574
T107
X016416Y015574
X023416Y014572
X016416Y016576
X023416Y015574
T108
X061416Y027574
X051416Y002574
X063416Y036574
X061416Y029574
X056416Y002574
X002416Y004574
X058416Y002574
X061416Y036574
X049416Y002574
X061416Y031574
X061416Y022574
X053416Y002574
X002416Y012574
X002416Y010574
X002416Y014574
X061416Y033574
X061416Y024574
X002416Y006574
T00
M30
