G04 MADE WITH FRITZING*
G04 WWW.FRITZING.ORG*
G04 DOUBLE SIDED*
G04 HOLES PLATED*
G04 CONTOUR ON CENTER OF CONTOUR VECTOR*
%ASAXBY*%
%FSLAX23Y23*%
%MOIN*%
%OFA0B0*%
%SFA1.0B1.0*%
%ADD10C,0.085000*%
%ADD11C,0.080000*%
%ADD12C,0.088000*%
%ADD13C,0.072992*%
%ADD14C,0.055000*%
%ADD15C,0.090000*%
%ADD16C,0.175354*%
%ADD17C,0.083999*%
%ADD18C,0.092000*%
%ADD19C,0.049370*%
%ADD20R,0.085000X0.085000*%
%ADD21R,0.321111X0.365556*%
%ADD22R,0.088000X0.088000*%
%ADD23R,0.072992X0.072992*%
%ADD24R,0.090000X0.090000*%
%ADD25R,0.089986X0.090000*%
%ADD26R,0.084001X0.084001*%
%ADD27R,0.092000X0.092000*%
%LNMASK1*%
G90*
G70*
G54D10*
X2889Y3473D03*
X2633Y3473D03*
X2889Y3650D03*
X2633Y3650D03*
G54D11*
X2889Y2250D03*
X2889Y2150D03*
X2189Y2250D03*
X2189Y2350D03*
G54D10*
X1589Y2450D03*
X1589Y2550D03*
X7089Y4150D03*
X7089Y4350D03*
X2389Y3150D03*
X2389Y3550D03*
G54D12*
X3389Y4250D03*
X3489Y4250D03*
G54D13*
X1189Y4250D03*
X1189Y4348D03*
X1989Y4250D03*
X1989Y4348D03*
X1589Y4250D03*
X1589Y4348D03*
X2789Y4250D03*
X2789Y4348D03*
X789Y4250D03*
X789Y4348D03*
X389Y4250D03*
X389Y4348D03*
X2389Y4250D03*
X2389Y4348D03*
G54D10*
X1589Y3950D03*
X1589Y3550D03*
X1389Y3950D03*
X1389Y3550D03*
X1189Y3950D03*
X1189Y3550D03*
X989Y3950D03*
X989Y3550D03*
X789Y3950D03*
X789Y3550D03*
X589Y3950D03*
X589Y3550D03*
X389Y3950D03*
X389Y3550D03*
X2389Y2950D03*
X2689Y2950D03*
X2389Y2850D03*
X2689Y2850D03*
X2389Y2750D03*
X2689Y2750D03*
X2389Y2650D03*
X2689Y2650D03*
X2389Y2550D03*
X2689Y2550D03*
X2389Y2450D03*
X2689Y2450D03*
X2389Y2350D03*
X2689Y2350D03*
X2389Y2250D03*
X2689Y2250D03*
X2389Y2150D03*
X2689Y2150D03*
X2389Y2050D03*
X2689Y2050D03*
X2389Y1950D03*
X2689Y1950D03*
X2389Y1850D03*
X2689Y1850D03*
X2389Y1750D03*
X2689Y1750D03*
X2389Y1650D03*
X2689Y1650D03*
G54D14*
X4689Y3750D03*
X4389Y4150D03*
X4389Y3950D03*
X4389Y3750D03*
X4389Y3150D03*
X4689Y3150D03*
X4689Y3950D03*
X4689Y4150D03*
X5289Y3750D03*
X4989Y4150D03*
X4989Y3950D03*
X4989Y3750D03*
X4989Y3150D03*
X5289Y3150D03*
X5289Y3950D03*
X5289Y4150D03*
X5889Y3750D03*
X5589Y4150D03*
X5589Y3950D03*
X5589Y3750D03*
X5589Y3150D03*
X5889Y3150D03*
X5889Y3950D03*
X5889Y4150D03*
X6489Y3750D03*
X6189Y4150D03*
X6189Y3950D03*
X6189Y3750D03*
X6189Y3150D03*
X6489Y3150D03*
X6489Y3950D03*
X6489Y4150D03*
G54D10*
X1289Y2850D03*
X1689Y2850D03*
X1289Y2950D03*
X1689Y2950D03*
X3289Y3250D03*
X3689Y3250D03*
X3289Y2750D03*
X3689Y2750D03*
X3289Y1750D03*
X3689Y1750D03*
X1289Y1350D03*
X1689Y1350D03*
X1289Y1550D03*
X1689Y1550D03*
X1289Y1650D03*
X1689Y1650D03*
X1289Y1450D03*
X1689Y1450D03*
X1289Y3050D03*
X1689Y3050D03*
X1289Y2750D03*
X1689Y2750D03*
X1289Y3150D03*
X1689Y3150D03*
X3289Y2850D03*
X3689Y2850D03*
X3289Y3050D03*
X3689Y3050D03*
X3289Y3150D03*
X3689Y3150D03*
X3289Y2950D03*
X3689Y2950D03*
X3289Y1350D03*
X3689Y1350D03*
X3289Y1450D03*
X3689Y1450D03*
X3289Y1550D03*
X3689Y1550D03*
X3289Y1650D03*
X3689Y1650D03*
G54D15*
X7589Y1250D03*
X7589Y1050D03*
X7589Y1450D03*
X7589Y4250D03*
X7589Y4050D03*
X7589Y2050D03*
X7589Y1850D03*
X7589Y2650D03*
X7589Y2450D03*
X7589Y3450D03*
X7589Y3250D03*
X7589Y3050D03*
X7589Y3650D03*
G54D16*
X289Y650D03*
X7489Y650D03*
G54D17*
X3989Y950D03*
X3989Y850D03*
X3989Y750D03*
X3989Y650D03*
G54D16*
X189Y4050D03*
X7289Y3950D03*
G54D18*
X6189Y2750D03*
X6487Y2750D03*
X5589Y2750D03*
X5887Y2750D03*
X4989Y2750D03*
X5287Y2750D03*
X4389Y2750D03*
X4687Y2750D03*
G54D10*
X789Y1150D03*
X789Y750D03*
X789Y1650D03*
X789Y1250D03*
G54D15*
X389Y1150D03*
X389Y1350D03*
X389Y1950D03*
X389Y2150D03*
X389Y1750D03*
G54D10*
X2489Y1150D03*
X2589Y1150D03*
X2689Y1150D03*
X2089Y650D03*
X2189Y650D03*
X2289Y650D03*
G54D19*
X1596Y1910D03*
X1596Y1358D03*
X3564Y1598D03*
X4116Y1766D03*
X3828Y1310D03*
X1596Y2342D03*
X2868Y2438D03*
X2940Y2006D03*
X4308Y1454D03*
X1140Y2822D03*
X2532Y1862D03*
X2532Y2078D03*
X2532Y1934D03*
X1836Y2366D03*
X4428Y1814D03*
X3564Y1886D03*
X1092Y2750D03*
G54D20*
X1589Y2450D03*
X7089Y4150D03*
G54D21*
X889Y2650D03*
G54D22*
X3389Y4250D03*
G54D21*
X3889Y3650D03*
X5489Y250D03*
X7489Y250D03*
X289Y250D03*
G54D23*
X1189Y4250D03*
X1989Y4250D03*
X1589Y4250D03*
X2789Y4250D03*
X789Y4250D03*
X389Y4250D03*
X2389Y4250D03*
G54D20*
X2389Y2950D03*
G54D24*
X7589Y1450D03*
G54D25*
X7589Y4250D03*
X7589Y2050D03*
X7589Y2650D03*
G54D24*
X7589Y3650D03*
G54D26*
X3989Y950D03*
G54D27*
X6188Y2750D03*
X5588Y2750D03*
X4988Y2750D03*
X4388Y2750D03*
G54D25*
X389Y1150D03*
G54D24*
X389Y1750D03*
G04 End of Mask1*
M02*