; NON-PLATED HOLES START AT T1
; THROUGH (PLATED) HOLES START AT T100
M48
INCH
T100C0.038000
T101C0.035000
T102C0.031497
T103C0.039999
T104C0.021000
T105C0.030000
T106C0.015748
T107C0.042000
T108C0.040000
T109C0.086614
%
T100
X033887Y042496
X034887Y042496
T101
X024887Y011496
X026887Y027496
X032887Y028496
X026887Y028496
X007887Y007496
X032887Y016496
X016887Y014496
X015887Y035496
X070887Y043496
X021887Y006496
X012887Y013496
X023887Y027496
X007887Y039496
X023887Y023496
X036887Y030496
X028887Y036496
X036887Y013496
X026887Y029496
X023887Y022496
X016887Y015496
X036887Y017496
X015887Y039496
X013887Y039496
X009887Y039496
X036887Y027496
X005887Y039496
X070887Y041496
X003887Y039496
X026887Y022496
X036887Y031496
X023887Y028496
X032887Y027496
X032887Y017496
X012887Y015496
X011887Y039496
X007887Y012496
X026887Y016496
X036887Y016496
X032887Y031496
X023887Y019496
X012887Y014496
X003887Y035496
X026887Y025496
X007887Y011496
X023887Y025496
X036887Y028496
X011887Y035496
X015887Y024496
X012887Y029496
X026887Y023496
X026328Y036496
X023887Y018496
X032887Y030496
X007887Y016496
X023887Y031496
X026887Y019496
X009887Y035496
X032887Y029496
X032887Y032496
X023887Y020496
X013887Y035496
X016887Y016496
X023887Y017496
X026887Y017496
X012887Y030496
X026887Y018496
X032887Y014496
X032887Y015496
X012887Y027496
X023887Y035496
X026887Y024496
X015887Y025496
X012887Y031496
X016887Y028496
X023887Y016496
X026887Y020496
X020887Y006496
X022887Y006496
X023887Y021496
X016887Y030496
X023887Y029496
X036887Y015496
X016887Y013496
X005887Y035496
X023887Y024496
X036887Y032496
X026887Y026496
X036887Y029496
X012887Y016496
X012887Y028496
X023887Y026496
X026887Y011496
X028887Y034725
X036887Y014496
X016887Y027496
X007887Y035496
X026328Y034725
X032887Y013496
X016887Y031496
X016887Y029496
X025887Y011496
X026887Y021496
T102
X027887Y043481
X027887Y042496
X015887Y043481
X019887Y043481
X003887Y043481
X011887Y042496
X003887Y042496
X023887Y042496
X015887Y042496
X007887Y043481
X019887Y042496
X023887Y043481
X007887Y042496
X011887Y043481
T103
X039887Y008496
X039887Y006496
X039887Y007496
X039887Y009496
T104
X061887Y041496
X049887Y031496
X064887Y031496
X064887Y039496
X052887Y041496
X055887Y037496
X058887Y037496
X046887Y041496
X055887Y041496
X046887Y031496
X046887Y037496
X058887Y041496
X049887Y037496
X064887Y041496
X061887Y037496
X043887Y039496
X052887Y031496
X061887Y039496
X043887Y041496
X058887Y039496
X043887Y031496
X064887Y037496
X058887Y031496
X049887Y039496
X055887Y039496
X061887Y031496
X049887Y041496
X052887Y037496
X046887Y039496
X043887Y037496
X052887Y039496
X055887Y031496
T105
X021887Y023498
X028887Y022496
X028887Y021495
X021887Y022496
T106
X029400Y020055
X025320Y019335
X015960Y023415
X035640Y015975
X028680Y024375
X041160Y017655
X025320Y020775
X025320Y018615
X010920Y027495
X035640Y018855
X018360Y023655
X011400Y028215
X015960Y019095
X038280Y013095
X044280Y018135
X043080Y014535
X015960Y013575
T107
X064867Y027496
X046867Y027496
X049887Y027496
X055887Y027496
X052867Y027496
X058867Y027496
X061887Y027496
X043887Y027496
T108
X003887Y013496
X075887Y032496
X075887Y014496
X075887Y010496
X075887Y040496
X075887Y034496
X075887Y030496
X075887Y036496
X075887Y024496
X003887Y021496
X075887Y026496
X075887Y018496
X003887Y017496
X075887Y012496
X003887Y019496
X075887Y020496
X075887Y042496
X003887Y011496
T109
X001887Y040496
X072887Y039496
X002887Y006496
X074887Y006496
T00
M30
